PathFileType	4	(X/Y/Z)	Kaydara	
DataRate	CameraRate	NumFrames	NumMarkers	Units	OrigDataRate	OrigDataStartFrame	OrigNumFrames	
240.00	240.00	4	72	mm	240.00	89	355	
Frame#	Time	Hips			RightUpLeg			RightLeg			RightFoot			RightFoot_End			LeftUpLeg			LeftLeg			LeftFoot			LeftFoot_End			Spine			Spine1			Spine2			Spine3			Neck			Head			Head_End			RightShoulder			RightArm			RightForeArm			RightHand			RightHandThumb1			RightHandThumb2			RightHandThumb3			RightHandThumb3_End			RightInHandIndex			RightHandIndex1			RightHandIndex2			RightHandIndex3			RightHandIndex3_End			RightInHandMiddle			RightHandMiddle1			RightHandMiddle2			RightHandMiddle3			RightHandMiddle3_End			RightInHandRing			RightHandRing1			RightHandRing2			RightHandRing3			RightHandRing3_End			RightInHandPinky			RightHandPinky1			RightHandPinky2			RightHandPinky3			RightHandPinky3_End			LeftShoulder			LeftArm			LeftForeArm			LeftHand			LeftHandThumb1			LeftHandThumb2			LeftHandThumb3			LeftHandThumb3_End			LeftInHandIndex			LeftHandIndex1			LeftHandIndex2			LeftHandIndex3			LeftHandIndex3_End			LeftInHandMiddle			LeftHandMiddle1			LeftHandMiddle2			LeftHandMiddle3			LeftHandMiddle3_End			LeftInHandRing			LeftHandRing1			LeftHandRing2			LeftHandRing3			LeftHandRing3_End			LeftInHandPinky			LeftHandPinky1			LeftHandPinky2			LeftHandPinky3			LeftHandPinky3_End			
		X1	Y1	Z1	X2	Y2	Z2	X3	Y3	Z3	X4	Y4	Z4	X5	Y5	Z5	X6	Y6	Z6	X7	Y7	Z7	X8	Y8	Z8	X9	Y9	Z9	X10	Y10	Z10	X11	Y11	Z11	X12	Y12	Z12	X13	Y13	Z13	X14	Y14	Z14	X15	Y15	Z15	X16	Y16	Z16	X17	Y17	Z17	X18	Y18	Z18	X19	Y19	Z19	X20	Y20	Z20	X21	Y21	Z21	X22	Y22	Z22	X23	Y23	Z23	X24	Y24	Z24	X25	Y25	Z25	X26	Y26	Z26	X27	Y27	Z27	X28	Y28	Z28	X29	Y29	Z29	X30	Y30	Z30	X31	Y31	Z31	X32	Y32	Z32	X33	Y33	Z33	X34	Y34	Z34	X35	Y35	Z35	X36	Y36	Z36	X37	Y37	Z37	X38	Y38	Z38	X39	Y39	Z39	X40	Y40	Z40	X41	Y41	Z41	X42	Y42	Z42	X43	Y43	Z43	X44	Y44	Z44	X45	Y45	Z45	X46	Y46	Z46	X47	Y47	Z47	X48	Y48	Z48	X49	Y49	Z49	X50	Y50	Z50	X51	Y51	Z51	X52	Y52	Z52	X53	Y53	Z53	X54	Y54	Z54	X55	Y55	Z55	X56	Y56	Z56	X57	Y57	Z57	X58	Y58	Z58	X59	Y59	Z59	X60	Y60	Z60	X61	Y61	Z61	X62	Y62	Z62	X63	Y63	Z63	X64	Y64	Z64	X65	Y65	Z65	X66	Y66	Z66	X67	Y67	Z67	X68	Y68	Z68	X69	Y69	Z69	X70	Y70	Z70	X71	Y71	Z71	X72	Y72	Z72	

89	0.367	6921.0129	906.651	56.2195	7001.933182521868	893.5322765924857	5.660633869705199	6925.9926290883395	491.9183409018231	-85.6583630139817	6905.084809080669	107.86097509800338	-159.0820883797098	6830.511200523489	32.777624529405585	0.10289301999427147	6848.907081069463	891.2869577452276	118.38107992880575	6782.875450586748	488.17966352726444	211.71555324374816	6746.9046200872035	57.05477980926926	299.6044631032929	6612.909669150837	-16.20425769018971	184.31164110677997	6879.1019925317805	1033.72194931548	5.533842941641515	6831.536323066219	1101.1989552600935	-45.14259042289611	6777.468122165686	1165.7641843667716	-100.57725583947683	6719.536434462068	1218.028652917741	-158.02831163661446	6657.144471705425	1274.107245796176	-218.6753606695448	6599.083535906745	1325.0387988722891	-273.00761173231655	6481.195954117698	1419.8258432452249	-323.55822539469614	6701.452635068699	1259.0759969242856	-218.762048564581	6765.856913159741	1259.5963271301503	-327.23207433293385	6802.408580325643	997.8514920656129	-322.4607903971942	6873.446774607362	801.8832244550165	-382.9962907888713	6885.927379627841	790.7683358653677	-398.2765020425657	6879.797119224653	780.6655136886534	-414.22603269472563	6875.113783362709	772.0394037651303	-423.75951215642976	6870.855130093724	763.4875582522285	-430.3608361852922	6887.574686901826	783.1689072414592	-393.6821654481614	6899.023126610784	752.4719113697626	-405.71249671640294	6896.3758580761205	735.8003968050118	-415.9791348261509	6888.352927869918	731.6879707419122	-423.75038354582574	6877.410785512112	732.5014519087958	-431.11921831198754	6885.5450823914225	780.1343802504739	-389.0730820727573	6895.616762158665	748.5507387690825	-398.313509059341	6892.409870536995	730.0638282562397	-408.87164145903876	6882.577789524393	724.9608083350831	-417.93794146740174	6870.530859790393	725.7821078530382	-425.8503587370483	6883.926367400375	778.7096919415283	-385.482636633829	6891.861512358526	748.9800713373238	-390.5677538848592	6888.724088895568	732.6158065732662	-399.09693297094987	6879.058478126282	727.5602570124123	-407.4845274554895	6867.645174481753	728.2693319021272	-414.7547468566395	6880.8833968886875	778.4622055216419	-381.20966323340707	6886.649384186649	750.8166877780588	-383.15227269866296	6883.567646322143	737.45131607303	-388.9096802901304	6876.24206981211	733.6372938785431	-394.50884997770163	6865.973217791038	734.1926270982683	-400.65052039230756	6653.50677073072	1252.3723920388643	-176.8089540989253	6583.602775258549	1186.7017111425453	-92.07679083891111	6727.326720686582	1014.3340848635346	-214.38132569084678	6890.879362473926	862.808973947094	-313.85275302944916	6880.010322109625	863.0178915808865	-341.7644722573005	6882.329578194956	849.5254311774627	-376.780765876748	6884.3057748922665	837.7580198947874	-400.652530772848	6886.262128958603	825.9194880953906	-420.1140334696221	6878.886559548398	855.0933830673584	-342.08147060607155	6868.051476930632	832.0953072381975	-385.0632459752754	6868.100997660701	813.1175192196602	-417.12593353233564	6872.844412969824	803.4031069916659	-435.323440534479	6879.949350156522	796.7682620683199	-449.21462296225513	6880.60647843084	849.3030760304841	-339.290859647401	6870.9664017821715	823.7403138825301	-379.7039352763577	6871.292001903209	802.3386379798078	-414.1857595471805	6877.145086823644	790.2859497097654	-435.89806624991877	6884.9825367778385	782.8645364980194	-450.9797356929743	6882.021230788553	845.8092140131819	-336.2058156157838	6874.385032445682	819.8965399053546	-369.6972379376365	6874.9624349248015	800.5744790302642	-399.1721147756706	6880.764132698888	788.5938160278956	-419.8075465279411	6888.207211269436	781.4476459122964	-433.84224615810047	6884.571201325553	842.3689488374852	-331.53608130637383	6878.877961665459	816.5075990967739	-359.3333463332367	6879.832259247856	800.105545696586	-381.885546582151	6884.302005050674	790.9170907532122	-396.42910472935955	6891.032314056408	784.327933681338	-408.5691991303162
90	0.371	6921.0129	906.651	56.2195	7002.027316473336	893.5675553713997	5.699027096015749	6926.054417881296	491.94426572377233	-85.55188633499017	6905.274991698979	107.89483555246925	-159.0003810600369	6830.692559881213	32.80512802137997	0.17725163331673377	6848.8034283928455	891.2453118894883	118.33608425543585	6782.812931836109	488.1197683178539	211.6290702593824	6746.980542953781	56.99016430138365	299.6092367504052	6612.9714969141005	-16.258395151010387	184.32208064178693	6879.141974221742	1033.749324780253	5.561512224657845	6831.650588446854	1101.2786907300124	-45.127712997612655	6777.663898780145	1165.8990013490602	-100.59471204653694	6719.81326775538	1218.206617778267	-158.11262699918652	6657.504872949248	1274.328967616867	-218.83063957027545	6599.514501164868	1325.2948219592645	-273.2290776239461	6481.5994473046785	1420.0091092040734	-323.8629262661446	6701.879309150601	1259.3663581832197	-218.87940726122613	6766.857614799677	1260.4850670692172	-327.6030552863496	6803.471213061684	998.4612723873669	-324.00718395949525	6874.781878582978	803.3057691907219	-386.9196964846252	6887.3825393790485	792.5036806226248	-402.37596159646705	6881.234635282166	782.596779057769	-418.63103997328597	6876.527359819517	774.082953422015	-428.4015846160853	6872.2387807201785	765.6040505969776	-435.22131198205795	6889.011214530477	784.8553829916291	-397.88348475397356	6900.518925998268	754.433088651119	-410.43440361118473	6897.848143259713	737.9045546640725	-421.07045746893345	6889.779939290704	733.8529313671813	-429.01511452610873	6878.779646109286	734.6977925722421	-436.4895320311727	6886.944775815304	781.7433071840715	-393.3226634999892	6897.054362321581	750.3856688754872	-403.0969589479531	6893.816678683659	732.0435949938893	-414.06288578550704	6883.927513127538	727.0085645941956	-423.3406462108284	6871.815758277073	727.8615905445325	-431.36968369480934	6885.299118165131	780.2572067162981	-389.7532205248684	6893.246582516605	750.6779492888796	-395.3355775826959	6890.0770075162845	734.4281334358648	-404.2241403923048	6880.353512538049	729.4319032560516	-412.8178020027118	6868.877919811579	730.167841579098	-420.1986673357294	6882.218704509313	779.9279400618323	-385.4878761397207	6887.974917164101	752.3713013462318	-387.8920593497048	6884.85908641636	739.0785218636497	-393.94123848152935	6877.487251124566	735.2985502951426	-399.69264464185045	6867.160897296314	735.8723755563849	-405.93344024774956	6653.739864217212	1252.4930403105968	-176.95212217723525	6583.389882397758	1186.4132424729992	-92.3395357345747	6727.17915254282	1014.5417946817321	-215.63923906892035	6891.1866958786895	863.812324210505	-316.3895945382645	6880.301817585334	864.2094841515583	-344.5137653082953	6882.583252156306	850.7642428374879	-379.6793029363615	6884.505678281443	839.0243758032757	-403.6345128908058	6886.393739100311	827.2042389864878	-423.14805274982814	6879.070377822356	856.299085718398	-344.77981208758496	6867.978949767299	833.521254040259	-387.9194112221402	6867.89221878949	814.6113847286346	-420.0758928525481	6872.616293915476	804.8796080671818	-438.3273526901238	6879.749315639585	798.1901956063	-452.260251673952	6880.726612268926	850.4825346013671	-341.92722033924383	6870.802045041565	825.1204208690513	-382.4607116636331	6870.971448544397	803.7885739529922	-417.03617373843355	6876.7975923719505	791.7128802391064	-438.80939278834603	6884.664018020292	784.230760777975	-453.9346757251565	6882.102254894935	846.9653864078172	-338.7944197651226	6874.175220334046	821.2148809332922	-372.35247886452265	6874.609251820617	801.9489788482489	-401.89987761078567	6880.381123687563	789.9436267851155	-422.58923518215664	6887.8496275248	782.7391934730582	-436.6626541372603	6884.61976111115	843.4850045973036	-334.06459611495416	6878.637462668703	817.7506722769913	-361.88618842419453	6879.466948491276	801.3855356214252	-384.48198419346795	6883.910099151478	792.1751768007556	-399.0578728696887	6890.660145305997	785.5321660611091	-411.2282358802311
91	0.375	6921.0129	906.651	56.2195	7002.117047859387	893.6007206175101	5.735042780491616	6926.110252605206	491.9680576369491	-85.44585542244879	6905.466154166657	107.92772189750774	-158.92109539278306	6830.874887327379	32.83132551738047	0.2490196992845357	6848.704171518671	891.2058079669374	118.29351593582614	6782.755792503662	488.0621373620003	211.54600491397255	6747.05724582082	56.9277520905689	299.61264490200097	6613.035041896066	-16.311455060468784	184.3309411666765	6879.182094565671	1033.776640205512	5.589054907562933	6831.764144105143	1101.358029197582	-45.11252549443013	6777.857971576435	1166.0330684089136	-100.61117869375973	6720.087274251933	1218.3835458678457	-158.19489391234984	6657.861267611534	1274.5493244737663	-218.98276490456243	6599.940428411848	1325.5492033357582	-273.4463740246778	6481.997621535097	1420.1906976775701	-324.1628037918132	6702.300754727295	1259.653828983625	-218.99451933621341	6767.8464622945185	1261.3638929665087	-327.96992362059353	6804.511683995958	999.0637823671655	-325.54114842418664	6876.0830947112745	804.7174162859864	-390.8245363594716	6888.80041705662	794.22786778667	-406.45541958614234	6882.633743776889	784.5168850951335	-423.0133069811617	6877.902060818449	776.1152915737993	-433.01910135702224	6873.583436065373	767.7092443444024	-440.0557971210303	6890.411099945893	786.5304450846961	-402.0651401077926	6901.975829877659	756.3820891318678	-415.13470100550563	6899.280932354224	739.9962691926326	-426.1380672421975	6891.1675298212795	736.0055288996022	-434.2544897925567	6880.1094506393765	736.8820024491946	-441.83290416489274	6888.308810625231	783.3407209858101	-397.55286271526097	6898.454637827629	752.2082876213263	-407.85928160216537	6895.18564512119	734.0107492144293	-419.2307502330832	6885.239552114317	729.0438001887284	-428.7180094616058	6873.0634035944195	729.9288043496861	-436.8619418545894	6886.636954522064	781.7931543833231	-394.0046787235335	6894.595867172453	752.3634886275948	-400.0829572648296	6891.393834044125	736.2278499416284	-409.3289865381711	6881.612682898035	731.2910228277345	-418.12684765163766	6870.075243016979	732.0540589907027	-425.61674830898596	6883.520085394197	781.3820923746091	-389.74725374508716	6889.266305072231	753.9136048585301	-392.61200618849125	6886.116364566383	740.6931889454071	-398.95149928583174	6878.6985474236735	736.9473236974483	-404.8538172513489	6868.315146913887	737.5398455699677	-411.19233294215667	6653.971064922594	1252.6141341751256	-177.09199891248036	6583.182087023559	1186.131986562514	-92.59512114875986	6727.02102636418	1014.7495867443929	-216.88461356877673	6891.467357247678	864.8062509826123	-318.9125518837948	6880.56559003769	865.3897479704453	-347.24503222617585	6882.806507236421	851.9903486446964	-382.55735141268207	6884.673388882467	840.2771141563944	-406.5945169853495	6886.49176615657	828.4746527485654	-426.1590451572366	6879.22693421663	857.4933824482723	-347.46038856507397	6867.877834926059	834.9332523387299	-390.75343928244354	6867.652932932796	816.089916731826	-423.00156381112777	6872.355946137895	806.3402843273683	-441.30628405787775	6879.515270824747	799.5961470773871	-455.28076152135327	6880.81976447222	851.6508226958005	-344.54662365533176	6870.609565391386	826.4870046633448	-385.1967027719825	6870.620717962908	805.223515214657	-419.86357715070295	6876.41786269379	793.124242407243	-441.69693164000284	6884.311324008757	785.581253919202	-456.8657054194294	6882.15653972487	848.1106154507602	-341.3667402510227	6873.937887337246	822.5203552723758	-374.9885656767707	6874.226799884401	803.3093738222251	-404.6066772566058	6879.966883358093	791.2788029614524	-425.3492806577109	6887.458999067019	784.0159645821979	-439.46133650264034	6884.641816385982	844.5904847361963	-336.5777969681784	6878.369921922072	818.9816178900797	-364.4216518609691	6879.073266085375	802.6524842384257	-387.0598109654919	6883.48842391797	793.4198727480101	-401.66763889032296	6890.256620277638	786.722904305292	-413.868257746225
92	0.379	6921.0129	906.651	56.2195	7002.202326841518	893.6317500260453	5.768658796900051	6926.160090334096	491.98969173383705	-85.34028059940354	6905.65829492136	107.95962151171607	-158.84426153744954	6831.058183972758	32.85620256982451	0.3181674203574474	6848.6093607337825	891.1684690946566	118.25339840754778	6782.704078504294	488.00679750842016	211.46639065286422	6747.134728300766	56.86756957972353	299.61467863026786	6613.100312976513	-16.36342073769463	184.3382110675853	6879.222352823506	1033.8038926771374	5.616466090074623	6831.876977177228	1101.4369627018125	-45.09702607062027	6778.050313344906	1166.16637238631	-100.62664277529743	6720.358410626364	1218.5594205213504	-158.27508095187258	6658.213595551939	1274.76829598221	-219.13168570602514	6600.361243388421	1325.8019203224444	-273.65943170212597	6482.390402974327	1420.3705957893621	-324.45776717493374	6702.7168918871985	1259.9383669501378	-219.10734535159344	6768.823247862892	1262.232636865396	-328.3325909483978	6805.529730999369	999.6589452010147	-327.0623692461883	6877.350014841471	806.1180306008855	-394.7100694358469	6890.180578908645	795.9407239346044	-410.5141194136698	6883.994000077883	786.4256283768643	-427.37202515464463	6879.2374347952455	778.1361976095246	-437.61121176429083	6874.888639334962	769.8029077254765	-444.86340091595395	6891.7739076056	788.1939296515119	-406.22635379874754	6903.393370790915	758.3187197223713	-419.8125275236072	6900.673745018266	742.0753281280712	-431.1810374177054	6892.51521818305	738.1455390431872	-439.4675493410974	6881.399721818593	739.0538472070668	-447.14835212703224	6889.636754581299	784.9264689374679	-401.7628886364356	6899.817127091109	754.0184198187953	-412.5995971051322	6896.516294756534	735.9650963760997	-424.3742820705333	6886.513430525367	731.0663068113367	-434.06903762177404	6874.273324282654	731.9835303449805	-442.3261145592496	6887.93944728211	783.3173908547875	-398.23621285330677	6895.908913202305	754.0365326395935	-404.80900866005203	6892.6741041927	738.014784145255	-414.41052227682405	6882.835524408424	733.1374313737942	-423.4106751104182	6871.236683684507	733.9277902135024	-431.00797657152384	6884.7871155581315	782.8245291136114	-393.9869915523964	6890.523104845933	755.4434600228675	-397.31122619395444	6887.339029825928	742.2951694392378	-403.9395219418217	6879.875507901631	738.5834584181297	-409.9913968802078	6869.435520014184	739.1948737209705	-416.42620586474317	6654.200345220111	1252.7356786206615	-177.22853548648754	6582.9794700981565	1185.8580609738156	-92.84346296314817	6726.852355967867	1014.9574614212411	-218.11716345308537	6891.721151520485	865.7906073046978	-321.4210762794311	6880.801435106906	866.5585145080522	-349.9576873484673	6882.999143373891	853.2035798584793	-385.41429154834907	6884.808716403111	841.5160660133379	-409.53190108880284	6886.556033775791	829.7305602284134	-429.1463515201432	6879.356048677519	858.6760999548801	-350.1226160813684	6867.74799665207	836.3310996475684	-393.5646999027294	6867.383030516583	817.5529063374581	-425.9022861167723	6872.0632648320725	807.7849328374919	-444.2595592117883	6879.247107092111	800.9859251819901	-458.2754669393077	6880.885771653326	852.8077685436564	-347.1484915239871	6870.388851668146	827.8398658548283	-387.91128855656586	6870.2397296133095	806.6432556784483	-422.6673178913522	6876.005823980888	794.5198374655674	-444.5600130988897	6883.9243772388845	786.915829977364	-459.77214419251516	6882.1839326355575	849.2447310516179	-343.92220431999147	6873.672937236052	823.8127690879278	-377.604892558743	6873.815011595214	804.6554646651948	-407.2918811552328	6879.521351756243	792.5991525422972	-428.08703375407345	6887.035262972788	785.2777793565488	-442.2376340821231	6884.6372248175285	845.6852231058568	-339.0751187512779	6878.075255551498	820.2002499361087	-366.9391458271344	6878.651154027939	803.9062018577531	-389.6184163976153	6883.036928265753	794.650994536709	-404.25778098833064	6889.821686061751	787.8999752903317	-416.48863457378366
